<?xml version="1.0" ?><!DOCTYPE svg  PUBLIC '-//W3C//DTD SVG 1.1//EN'  'http://www.w3.org/Graphics/SVG/1.1/DTD/svg11.dtd'><svg enable-background="new 0 0 130 130" id="Layer_1" version="1.1" viewBox="0 0 130 130" xml:space="preserve" xmlns="http://www.w3.org/2000/svg" xmlns:xlink="http://www.w3.org/1999/xlink"><g><circle cx="65" cy="65" fill="#324A5E" r="64"/><g><polygon fill="#54C0EB" points="43,81.2 81.2,81.2 81.2,51.7 29.9,51.7 28.4,66.9 43,66.9   "/><polygon fill="#54C0EB" points="101.5,65.7 100.1,51.7 83.2,51.7 83.2,65.7   "/><polygon fill="#54C0EB" points="41,68.9 28.2,68.9 26.5,85.9 41,85.9   "/><polygon fill="#54C0EB" points="83.2,81.2 103,81.2 101.7,67.7 83.2,67.7   "/><polygon fill="#54C0EB" points="83.2,101 105,101 103.2,83.2 83.2,83.2   "/><polygon fill="#54C0EB" points="43,83.2 43,85.9 54.1,85.9 68.6,101 81.2,101 81.2,83.2   "/><polygon fill="#54C0EB" points="26.3,87.9 25,101 65.9,101 53.2,87.9   "/><polygon fill="#FFFFFF" points="103,81.2 83.2,81.2 83.2,67.7 101.7,67.7 101.5,65.7 83.2,65.7 83.2,51.7 81.2,51.7 81.2,81.2     43,81.2 43,66.9 28.4,66.9 28.2,68.9 41,68.9 41,85.9 26.5,85.9 26.3,87.9 53.2,87.9 65.9,101 68.6,101 54.1,85.9 43,85.9     43,83.2 81.2,83.2 81.2,101 83.2,101 83.2,83.2 103.2,83.2   "/><path d="M77.2,37.2c0,9.1-16.4,32.6-16.4,32.6S44.4,46.3,44.4,37.2s7.3-16.4,16.4-16.4S77.2,28.2,77.2,37.2z" fill="#FF7058"/><circle cx="60.8" cy="37.2" fill="#FFFFFF" r="10.7"/><path d="M59.9,33.7c0,0.7-0.3,1.3-0.8,1.8c-0.5,0.5-1.1,0.7-1.9,0.7s-1.4-0.2-1.9-0.7c-0.5-0.5-0.8-1.1-0.8-1.8    c0-0.7,0.3-1.3,0.8-1.8c0.5-0.5,1.1-0.7,1.9-0.7s1.4,0.2,1.9,0.7C59.6,32.4,59.9,33,59.9,33.7z M66.8,30.8l-9.1,12.6h-3.1    l9.1-12.6H66.8z M56.7,34.3c0.1,0.2,0.3,0.2,0.5,0.2c0.2,0,0.4-0.1,0.5-0.2c0.1-0.2,0.2-0.4,0.2-0.6c0-0.3-0.1-0.5-0.2-0.7    c-0.1-0.2-0.3-0.3-0.5-0.3c-0.2,0-0.4,0.1-0.5,0.3c-0.1,0.2-0.2,0.4-0.2,0.7C56.5,34,56.5,34.2,56.7,34.3z M67,41.1    c0,0.7-0.3,1.3-0.8,1.8c-0.5,0.5-1.1,0.7-1.9,0.7c-0.8,0-1.4-0.2-1.9-0.7s-0.8-1.1-0.8-1.8c0-0.7,0.3-1.3,0.8-1.8    c0.5-0.5,1.1-0.7,1.9-0.7c0.8,0,1.4,0.2,1.9,0.7C66.7,39.8,67,40.4,67,41.1z M63.8,41.7c0.1,0.2,0.3,0.2,0.5,0.2    c0.2,0,0.4-0.1,0.5-0.2c0.1-0.2,0.2-0.4,0.2-0.6c0-0.3-0.1-0.5-0.2-0.7c-0.1-0.2-0.3-0.3-0.5-0.3c-0.2,0-0.4,0.1-0.5,0.3    c-0.1,0.2-0.2,0.4-0.2,0.7C63.6,41.4,63.6,41.6,63.8,41.7z" fill="#324A5E"/></g></g></svg>