<?xml version="1.0" ?><!DOCTYPE svg  PUBLIC '-//W3C//DTD SVG 1.1//EN'  'http://www.w3.org/Graphics/SVG/1.1/DTD/svg11.dtd'><svg enable-background="new 0 0 130 130" id="Layer_1" version="1.1" viewBox="0 0 130 130" xml:space="preserve" xmlns="http://www.w3.org/2000/svg" xmlns:xlink="http://www.w3.org/1999/xlink"><g><circle cx="65" cy="65" fill="#324A5E" r="64"/><g><polygon fill="#FFFFFF" points="66.6,67.2 66.6,54.5 63.4,54.5 63.4,67.2 44.7,75.7 46,78.6 65,69.9 84,78.6 85.3,75.7   "/><circle cx="41.5" cy="81.8" fill="#FF7058" r="7.8"/><path d="M47.9,91.1c-1.8,1.3-4,2-6.4,2c-2.4,0-4.6-0.7-6.4-2c-5.3,2.4-9,7.7-9,13.9h30.7    C56.8,98.8,53.1,93.5,47.9,91.1z" fill="#F1543F"/><circle cx="88.5" cy="81.8" fill="#84DBFF" r="7.8"/><path d="M94.9,91.1c-1.8,1.3-4,2-6.4,2s-4.6-0.7-6.4-2c-5.3,2.4-9,7.7-9,13.9h30.7    C103.9,98.8,100.2,93.5,94.9,91.1z" fill="#54C0EB"/><circle cx="65" cy="32.8" fill="#FFD05B" r="7.8"/><path d="M71.4,42c-1.8,1.3-4,2-6.4,2c-2.4,0-4.6-0.7-6.4-2c-5.3,2.4-9,7.7-9,13.9h30.7    C80.3,49.8,76.7,44.4,71.4,42z" fill="#F9B54C"/></g></g></svg>