<?xml version="1.0" ?><!DOCTYPE svg  PUBLIC '-//W3C//DTD SVG 1.1//EN'  'http://www.w3.org/Graphics/SVG/1.1/DTD/svg11.dtd'><svg enable-background="new 0 0 130 130" id="Layer_1" version="1.1" viewBox="0 0 130 130" xml:space="preserve" xmlns="http://www.w3.org/2000/svg" xmlns:xlink="http://www.w3.org/1999/xlink"><g><circle cx="65" cy="65" fill="#84DBFF" r="64"/><g><circle cx="31.6" cy="72.9" fill="#324A5E" r="7.5"/><circle cx="31.6" cy="72.9" fill="#E6E9EE" r="6.3"/><path d="M31.4,78v-0.9c-1.1-0.1-2.1-0.6-3-1.3l0.9-1.1c0.7,0.6,1.4,0.9,2.1,1.1v-2.4c-0.9-0.2-1.6-0.5-2-0.9    c-0.4-0.4-0.6-0.9-0.6-1.6c0-0.7,0.2-1.3,0.7-1.7c0.5-0.4,1.1-0.7,1.9-0.7v-0.6h0.8v0.6c0.9,0.1,1.7,0.4,2.5,0.9l-0.8,1.1    c-0.5-0.4-1.1-0.6-1.7-0.7v2.3h0c0.9,0.2,1.6,0.5,2.1,0.9c0.4,0.4,0.7,0.9,0.7,1.6c0,0.7-0.3,1.3-0.8,1.7c-0.5,0.4-1.2,0.7-2,0.7    V78H31.4z M30.5,70.1c-0.2,0.2-0.3,0.4-0.3,0.7s0.1,0.5,0.2,0.6c0.2,0.2,0.5,0.3,0.9,0.5v-2.1C31,69.8,30.7,69.9,30.5,70.1z     M33.1,75.4c0.2-0.2,0.3-0.4,0.3-0.7c0-0.3-0.1-0.5-0.3-0.7c-0.2-0.2-0.5-0.3-1-0.5v2.2C32.5,75.7,32.8,75.6,33.1,75.4z" fill="#324A5E"/><path d="M31.6,45.3L17.8,78.6V79c0,7.6,6.2,13.8,13.8,13.8c7.6,0,13.8-6.2,13.8-13.8v-0.5L31.6,45.3z M19.8,78.6    l11.8-27.4l11.8,27.4H19.8z" fill="#F9B54C"/><circle cx="99.4" cy="58.4" fill="#F1543F" r="7.5"/><circle cx="99.4" cy="58.4" fill="#FF7058" r="6.2"/><path d="M99.1,63.6v-0.9c-1.1-0.1-2.2-0.6-3.1-1.4l0.9-1.1c0.7,0.6,1.4,1,2.2,1.1v-2.4c-0.9-0.2-1.6-0.5-2.1-0.9    c-0.4-0.4-0.7-0.9-0.7-1.6c0-0.7,0.3-1.3,0.8-1.8c0.5-0.5,1.2-0.7,2-0.7v-0.6h0.8v0.6c0.9,0.1,1.8,0.4,2.6,0.9l-0.8,1.1    c-0.5-0.4-1.1-0.6-1.8-0.7v2.3h0c1,0.2,1.7,0.5,2.1,0.9c0.4,0.4,0.7,0.9,0.7,1.7c0,0.7-0.3,1.3-0.8,1.8c-0.5,0.5-1.2,0.7-2,0.7    v0.9H99.1z M98.2,55.5c-0.2,0.2-0.3,0.4-0.3,0.7s0.1,0.5,0.3,0.7c0.2,0.2,0.5,0.3,0.9,0.5v-2.2C98.7,55.2,98.4,55.3,98.2,55.5z     M100.8,61c0.2-0.2,0.3-0.4,0.3-0.7c0-0.3-0.1-0.5-0.3-0.7c-0.2-0.2-0.5-0.3-1-0.5v2.2C100.3,61.3,100.6,61.2,100.8,61z" fill="#FFFFFF"/><path d="M99.4,30.8L85.6,64.1v0.5c0,7.6,6.2,13.8,13.8,13.8c7.6,0,13.8-6.2,13.8-13.8v-0.5L99.4,30.8z M87.6,64.1    l11.8-27.4l11.8,27.4H87.6z" fill="#F9B54C"/><rect fill="#324A5E" height="60.8" width="6.9" x="61.7" y="37.2"/><path d="M26.6,45.3L26.6,45.3c0.4,1.8,2.1,2.9,3.9,2.5L101,32.9c1.8-0.4,2.9-2.1,2.5-3.9l0,0    c-0.4-1.8-2.1-2.9-3.9-2.5L29.1,41.4C27.3,41.8,26.2,43.5,26.6,45.3z" fill="#2B3B4E"/><path d="M49.5,103.5L49.5,103.5l31.3,0v0c0-4.3-3.5-7.7-7.8-7.7H57.3C53,95.8,49.5,99.3,49.5,103.5z" fill="#2B3B4E"/></g></g></svg>