<?xml version="1.0" ?><!DOCTYPE svg  PUBLIC '-//W3C//DTD SVG 1.1//EN'  'http://www.w3.org/Graphics/SVG/1.1/DTD/svg11.dtd'><svg enable-background="new 0 0 130 130" id="Layer_1" version="1.1" viewBox="0 0 130 130" xml:space="preserve" xmlns="http://www.w3.org/2000/svg" xmlns:xlink="http://www.w3.org/1999/xlink"><g><circle cx="65" cy="65" fill="#FFD05B" r="64"/><g><path d="M89.1,104.9H30.2c-2.9,0-5.3-2.4-5.3-5.3V62.5c0-2.9,2.4-5.3,5.3-5.3h58.9c2.9,0,5.3,2.4,5.3,5.3v37.1    C94.4,102.6,92,104.9,89.1,104.9z" fill="#324A5E"/><rect fill="#FFFFFF" height="3.8" width="21.2" x="30.4" y="79.1"/><g><path d="M40.1,74.5h-8.5c-0.6,0-1.2-0.5-1.2-1.2v-8.5c0-0.6,0.5-1.2,1.2-1.2h8.5c0.6,0,1.2,0.5,1.2,1.2v8.5     C41.3,73.9,40.7,74.5,40.1,74.5z" fill="#FFD05B"/><polygon fill="#F9B54C" points="40.1,69.5 37.1,69.5 37.1,66.7 41.3,66.7 41.3,66.1 35.6,66.1 35.6,63.6 35,63.6 35,66.7      36.4,66.7 36.4,70.1 39.5,70.1 39.5,74.5 40.1,74.5    "/><polygon fill="#F9B54C" points="34,71 34,68.4 35.3,68.4 35.3,67.7 32.8,67.7 32.8,63.6 32.1,63.6 32.1,68.4 33.3,68.4      33.3,70.7 30.4,70.7 30.4,71.3 33.3,71.3 33.3,74.5 34,74.5 34,71.3    "/></g><polygon fill="#324A5E" points="89.6,78.6 89.6,83.6 93.3,81.1   "/><g><rect fill="#FFFFFF" height="3.7" width="6.3" x="30.4" y="87.5"/><rect fill="#54C0EB" height="3.7" width="6.3" x="40.6" y="87.5"/><rect fill="#2C9984" height="3.7" width="6.3" x="50.8" y="87.5"/><rect fill="#F1543F" height="3.7" width="6.3" x="61.1" y="87.5"/></g><path d="M86.2,25.1c-10.4,0-18.8,6.5-18.8,14.4c0,3.9,2,7.4,5.3,10l-2.3,6.1l7.1-3.4c2.6,1.1,5.6,1.7,8.7,1.7    c10.4,0,18.8-6.5,18.8-14.4S96.6,25.1,86.2,25.1z" fill="#F1543F"/><path d="M96.7,43.4H75.7c-2.1,0-3.8-1.7-3.8-3.8v-0.3c0-2.1,1.7-3.8,3.8-3.8h20.9c2.1,0,3.8,1.7,3.8,3.8v0.3    C100.5,41.7,98.8,43.4,96.7,43.4z" fill="#FFFFFF"/><g><polygon fill="#324A5E" points="85.6,38.1 84.9,37.4 83.9,38.4 83.9,37 83,37 83,38.4 82,37.4 81.3,38.1 82.3,39.1 80.9,39.1      80.9,40 82.3,40 81.3,41 82,41.6 83,40.6 83,42 83.9,42 83.9,40.6 84.9,41.6 85.6,41 84.6,40 86,40 86,39.1 84.6,39.1    "/><polygon fill="#324A5E" points="91.5,38.1 90.9,37.4 89.9,38.4 89.9,37 89,37 89,38.4 87.9,37.4 87.3,38.1 88.3,39.1 86.9,39.1      86.9,40 88.3,40 87.3,41 87.9,41.6 89,40.6 89,42 89.9,42 89.9,40.6 90.9,41.6 91.5,41 90.5,40 91.9,40 91.9,39.1 90.5,39.1         "/><polygon fill="#324A5E" points="97.9,39.1 96.5,39.1 97.5,38.1 96.8,37.4 95.8,38.4 95.8,37 94.9,37 94.9,38.4 93.9,37.4      93.3,38.1 94.3,39.1 92.8,39.1 92.8,40 94.3,40 93.3,41 93.9,41.6 94.9,40.6 94.9,42 95.8,42 95.8,40.6 96.8,41.6 97.5,41      96.5,40 97.9,40    "/><polygon fill="#324A5E" points="79.6,38.1 79,37.4 78,38.4 78,37 77,37 77,38.4 76,37.4 75.4,38.1 76.4,39.1 75,39.1 75,40      76.4,40 75.4,41 76,41.6 77,40.6 77,42 78,42 78,40.6 79,41.6 79.6,41 78.6,40 80,40 80,39.1 78.6,39.1    "/></g><g><circle cx="74.7" cy="94.5" fill="#4CDBC4" r="5.5"/><circle cx="83.5" cy="94.5" fill="#FFFFFF" r="5.5"/></g></g></g></svg>