<?xml version="1.0" ?><!DOCTYPE svg  PUBLIC '-//W3C//DTD SVG 1.1//EN'  'http://www.w3.org/Graphics/SVG/1.1/DTD/svg11.dtd'><svg enable-background="new 0 0 130 130" id="Layer_1" version="1.1" viewBox="0 0 130 130" xml:space="preserve" xmlns="http://www.w3.org/2000/svg" xmlns:xlink="http://www.w3.org/1999/xlink"><g><circle cx="65" cy="65" fill="#FD8469" r="64"/><g><path d="M97.4,102.4H32.6c-2.7,0-4.9-2.2-4.9-4.9V32.6c0-2.7,2.2-4.9,4.9-4.9h64.9c2.7,0,4.9,2.2,4.9,4.9v64.9    C102.4,100.2,100.2,102.4,97.4,102.4z" fill="#FFFFFF"/><g><polygon fill="#2B3B4E" points="93.8,94.3 35.5,94.3 35.5,35.9 40.1,35.9 40.1,89.6 93.8,89.6    "/></g><rect fill="#FF7058" height="15.7" width="7.9" x="45.7" y="68.5"/><rect fill="#54C0EB" height="29.4" width="7.9" x="58.3" y="54.7"/><rect fill="#FFD05B" height="19.1" width="7.9" x="70.9" y="65.1"/><rect fill="#2C9984" height="47.9" width="7.9" x="83.4" y="36.2"/></g></g></svg>