<?xml version="1.0" ?><!DOCTYPE svg  PUBLIC '-//W3C//DTD SVG 1.1//EN'  'http://www.w3.org/Graphics/SVG/1.1/DTD/svg11.dtd'><svg enable-background="new 0 0 130 130" id="Layer_1" version="1.1" viewBox="0 0 130 130" xml:space="preserve" xmlns="http://www.w3.org/2000/svg" xmlns:xlink="http://www.w3.org/1999/xlink"><g><circle cx="65" cy="65" fill="#90DFAA" r="64"/><g><path d="M91.6,65c0.2-1.5,0.3-3.1,0.3-4.7V36.1c0,0-25.3-6-31-11.1v40H91.6z" fill="#FFFFFF"/><path d="M61,25c-5.6,5.1-31,11.1-31,11.1v24.2c0,1.6,0.1,3.1,0.3,4.7H61V25z" fill="#324A5E"/><path d="M30.3,65c1.3,9.4,6.2,18.3,14.4,25.5L61,105V65H30.3z" fill="#FFFFFF"/><path d="M69.4,89.7c0-8.5,6.9-15.3,15.3-15.3c1.4,0,2.8,0.2,4.1,0.6c1.4-3.2,2.4-6.6,2.8-10H61v40l9.9-8.8    C69.9,94.2,69.4,92,69.4,89.7z" fill="#324A5E"/><circle cx="82.7" cy="87.7" fill="#FF7058" r="17.3"/><circle cx="82.7" cy="87.7" fill="#F1543F" r="14.2"/><path d="M76.7,96.4L72.1,88l3-1.7l2.4,4.3c2.9-2.7,9.1-7.7,14.8-8.4l0.4,3.4c-6.4,0.8-14.3,8.9-14.4,9L76.7,96.4z" fill="#FFFFFF"/></g></g></svg>