<?xml version="1.0" ?><!DOCTYPE svg  PUBLIC '-//W3C//DTD SVG 1.1//EN'  'http://www.w3.org/Graphics/SVG/1.1/DTD/svg11.dtd'><svg enable-background="new 0 0 130 130" id="Layer_1" version="1.1" viewBox="0 0 130 130" xml:space="preserve" xmlns="http://www.w3.org/2000/svg" xmlns:xlink="http://www.w3.org/1999/xlink"><g><circle cx="65" cy="65" fill="#FFD05B" r="64"/><path d="M104.8,38.6c-0.1-0.7-0.3-1.4-0.5-2L94.1,46.7l-9.6-9.6l-1.3-1.3l9.4-9.4c-5.1-0.9-10.5,0.6-14.4,4.6   c-4.2,4.2-5.6,10-4.4,15.4L46.4,73.9c-5.3-1.2-11.2,0.2-15.4,4.4c-3.9,3.9-5.4,9.3-4.6,14.4l9.4-9.4l1.3,1.3l9.6,9.6l-10.2,10.2   c0.7,0.2,1.3,0.4,2,0.5c5.1,0.9,10.5-0.6,14.4-4.6c4.2-4.2,5.6-10,4.4-15.4l27.5-27.5c5.3,1.2,11.2-0.2,15.4-4.4   C104.1,49.1,105.6,43.7,104.8,38.6z" fill="#324A5E"/></g></svg>